# xmcd
#
# Track frame offsets:
# 150
# 13445
# 24580
# 37135
# 47632
# 60570
# 71572
# 83695
# 96295
# 106330
# 115772
# 128565
# 140372
# 150940
# 160385
# 175545
# 187180
# 200005
# 210032
# 222900
# 233227
# 244817
# 255657
# 265300
#
# Disc length: 3725 seconds
#
#
# Revision: 3
# Processed by: cddbd v1.5.1PL0 Copyright (c) Steve Scherf et al.
# Submitted via: FreeRIP 2.94 
#
DISCID=4e0e8b18
DTITLE=Jim Reeves - The Legendary Jim Reeves
DYEAR=1900
DGENRE=country
TTITLE0=Danny Boy
TTITLE1=My Happiness
TTITLE2=I Can't Stop Loving You
TTITLE3=Am I That Easy to Forget
TTITLE4=Have I Told You Lately That I Love You
TTITLE5=Someday(You'll Want Me to Want You)
TTITLE6=Maria Elena
TTITLE7=Roses are Red(My Love)
TTITLE8=Making Believe
TTITLE9=The Hawaiian Wedding Song
TTITLE10=Goodnight Irene
TTITLE11=May the Good Lord Bless and Keep You
TTITLE12=He'll Have to Go
TTITLE13=Billy Bayou
TTITLE14=Blue Side of Lonesome
TTITLE15=Welcome to My World
TTITLE16=Distant Drums
TTITLE17=Is It Really Over
TTITLE18=Four Walls
TTITLE19=Am I Losing You
TTITLE20=I Missed Me
TTITLE21=I Guess I'm Crazy
TTITLE22=I Won't Come in While He's There
TTITLE23=This is It
EXTD=
EXTT0=
EXTT1=
EXTT2=
EXTT3=
EXTT4=
EXTT5=
EXTT6=
EXTT7=
EXTT8=
EXTT9=
EXTT10=
EXTT11=
EXTT12=
EXTT13=
EXTT14=
EXTT15=
EXTT16=
EXTT17=
EXTT18=
EXTT19=
EXTT20=
EXTT21=
EXTT22=
EXTT23=
PLAYORDER=
